<svg xmlns="http://www.w3.org/2000/svg" width="834" height="588" viewBox="0 0 834 588" version="1.1"><path d="M 263.630 2.750 C 262.399 5.131, 10.635 563.538, 2.919 581 L 0.047 587.500 2.774 584.052 C 47.137 527.939, 74.863 495.447, 111.615 456.500 L 128.601 438.500 210.954 250.734 L 293.306 62.968 294.991 66.734 C 295.918 68.805, 314.809 111.450, 336.973 161.500 C 359.136 211.550, 377.554 252.822, 377.901 253.216 C 378.249 253.610, 384.150 251.323, 391.016 248.134 C 397.882 244.944, 409.238 239.935, 416.250 237.003 C 423.262 234.071, 429 231.313, 429 230.875 C 429 230.086, 329.104 8.036, 326.371 2.750 L 324.949 0 295 -0 L 265.051 -0 263.630 2.750 M 433.377 282.294 C 416.808 293.094, 401.012 304.236, 401.005 305.128 C 401 305.786, 454.775 427.210, 500.040 528.750 L 526.453 588 558.310 588 C 577.399 588, 590.033 587.629, 589.833 587.075 C 588.300 582.821, 448.382 273.054, 448 273.069 C 447.725 273.079, 441.144 277.231, 433.377 282.294" stroke="none" fill="#0c5ca4" fill-rule="evenodd"/><path d="M 694.500 177.692 C 629.918 180.464, 562.095 190.665, 505.646 206.097 C 462.363 217.929, 440.625 226.043, 379.986 252.998 C 363.501 260.326, 330.737 278.321, 307.500 292.809 C 204.103 357.277, 106.158 450.901, 3.128 583.750 L -0.168 588 89.887 588 L 179.942 588 184.721 578.943 C 249.049 457.025, 313.012 374.570, 391.011 313.011 C 396.230 308.892, 401.103 304.946, 401.841 304.242 C 405.846 300.416, 446.747 273, 448.449 273 C 448.762 273, 453.376 270.484, 458.703 267.408 C 472.368 259.519, 499.552 246.035, 515.826 239.074 C 598.701 203.626, 698.136 185.099, 806.250 184.962 L 834 184.927 834 182.543 C 834 180.350, 833.500 180.111, 827.750 179.557 C 805.896 177.453, 726.095 176.336, 694.500 177.692" stroke="none" fill="#5bcbbc" fill-rule="evenodd"/></svg>